<?xml version="1.0" standalone="no"?>
<!DOCTYPE svg PUBLIC "-//W3C//DTD SVG 20010904//EN"
 "http://www.w3.org/TR/2001/REC-SVG-20010904/DTD/svg10.dtd">
<svg version="1.0" xmlns="http://www.w3.org/2000/svg"
 width="553.000000pt" height="553.000000pt" viewBox="0 0 553.000000 553.000000"
 preserveAspectRatio="xMidYMid meet">
<metadata>
Created by potrace 1.11, written by Peter Selinger 2001-2013
</metadata>
<g transform="translate(0.000000,553.000000) scale(0.100000,-0.100000)"
fill="#000000" stroke="none">
<path d="M4379 4416 c-57 -20 -105 -53 -148 -102 -72 -82 -163 -285 -211 -469
-28 -105 -31 -268 -7 -346 42 -140 186 -190 377 -130 124 39 297 154 395 263
25 28 43 44 41 37 -3 -8 -7 -30 -9 -49 -3 -19 -10 -64 -16 -100 -6 -36 -13
-87 -16 -115 -3 -27 -8 -57 -10 -65 -2 -8 -7 -40 -10 -70 -4 -30 -8 -56 -8
-56 -1 -1 -81 -27 -177 -59 -322 -105 -551 -208 -733 -330 -74 -49 -98 -68
-173 -137 l-22 -19 -30 49 c-104 170 -325 320 -556 378 -41 10 -64 20 -58 26
17 17 338 156 469 204 129 46 293 92 413 115 56 11 61 14 42 22 -21 10 -74 5
-197 -18 -151 -28 -402 -121 -704 -260 -81 -37 -131 -55 -146 -51 -19 5 -158
19 -192 19 -7 0 -10 4 -7 9 3 4 10 8 17 8 23 0 207 76 320 133 206 103 396
247 441 334 20 40 26 99 14 135 -20 59 -100 114 -228 159 -61 22 -67 23 -165
43 -161 32 -370 37 -575 12 -82 -10 -271 -43 -302 -52 -10 -3 -30 -7 -45 -10
-50 -9 -246 -66 -359 -105 -386 -133 -711 -332 -739 -453 -11 -47 -12 -72 -3
-88 11 -22 28 -23 28 -3 0 33 41 94 100 148 215 200 841 440 1305 502 28 4 52
9 55 10 27 16 395 25 490 12 102 -13 125 -19 218 -49 183 -60 239 -136 184
-244 -44 -87 -206 -208 -424 -317 -136 -68 -312 -138 -316 -126 -2 5 1 24 7
42 21 63 24 136 7 163 -9 13 -20 24 -24 24 -12 0 -52 -93 -52 -121 0 -13 -8
-51 -18 -84 l-18 -60 -69 -10 c-60 -9 -66 -12 -51 -24 9 -8 33 -14 54 -15 46
-1 53 -11 37 -50 -7 -17 -18 -55 -25 -84 -11 -48 -17 -57 -57 -80 -124 -74
-318 -207 -401 -276 -108 -90 -295 -278 -313 -315 -7 -14 -23 -39 -34 -56
-150 -210 -204 -440 -146 -612 11 -32 17 -61 13 -64 -14 -14 -271 -98 -375
-123 -170 -42 -286 -55 -447 -51 -80 1 -158 6 -175 9 -202 43 -315 110 -369
219 -44 86 -32 197 35 329 66 131 262 356 414 474 154 120 429 284 612 364 94
42 273 106 315 114 12 2 41 9 63 14 22 6 63 14 90 17 83 11 108 15 145 27 45
14 59 25 56 46 -3 22 -78 28 -156 13 -30 -6 -71 -13 -90 -17 -123 -22 -317 1
-371 44 -31 26 -20 58 41 120 119 121 335 232 457 234 104 3 143 -63 119 -199
-10 -57 15 -60 34 -4 32 98 10 174 -65 229 -38 28 -74 36 -150 35 -75 -1 -165
-35 -294 -112 -162 -97 -245 -197 -226 -274 11 -41 67 -86 138 -111 l66 -23
-97 -38 c-190 -75 -469 -228 -623 -342 -279 -205 -484 -457 -561 -689 -34
-103 -32 -238 5 -315 79 -163 316 -262 612 -254 110 3 249 18 315 35 19 5 46
11 60 14 78 13 303 84 426 134 l51 20 26 -29 c31 -35 114 -93 174 -120 118
-54 340 -80 493 -58 372 52 770 235 1026 471 30 27 45 36 48 27 85 -285 218
-476 384 -551 60 -28 74 -30 138 -25 148 11 306 133 450 348 143 214 218 428
298 854 11 56 41 241 51 310 3 23 7 51 10 63 5 28 33 229 41 302 3 30 8 57 10
59 2 2 67 21 146 43 249 68 278 78 278 93 0 8 -8 15 -18 15 -18 0 -283 -66
-362 -89 -19 -6 -36 -11 -37 -11 -1 0 0 10 2 23 2 12 6 49 10 82 4 33 15 123
26 200 11 77 22 158 25 180 9 63 20 106 42 161 12 29 18 54 16 57 -3 3 -19 1
-34 -5 -29 -10 -36 -22 -60 -117 -22 -85 -241 -277 -415 -363 -66 -33 -169
-68 -199 -68 -36 0 -71 15 -96 42 -41 43 -53 87 -56 203 -3 127 15 218 72 373
79 210 146 313 241 368 37 22 53 26 99 22 59 -5 120 -40 157 -89 74 -100 73
-330 -2 -544 -26 -72 -28 -96 -7 -75 14 15 81 202 90 253 3 15 10 55 16 90 15
77 6 185 -19 240 -24 56 -81 112 -139 138 -56 26 -161 33 -213 15z m367 -1288
c-2 -18 -7 -53 -11 -78 -15 -112 -33 -225 -61 -380 -13 -74 -26 -150 -29 -168
-3 -18 -12 -64 -20 -102 -8 -38 -17 -84 -20 -102 -3 -17 -8 -34 -10 -38 -2 -4
-7 -22 -10 -41 -11 -62 -95 -298 -140 -392 -124 -258 -299 -446 -461 -497 -71
-21 -123 -17 -189 15 -132 65 -281 284 -324 477 -9 41 -9 43 44 102 69 80 139
199 172 294 35 101 37 253 5 349 l-20 63 62 57 c153 142 454 294 806 408 63
20 122 39 130 42 8 3 24 8 34 10 11 2 22 6 25 8 13 14 22 1 17 -27z m-1896
-18 c11 -1 -203 -119 -217 -120 -3 0 18 75 29 104 l11 28 81 -6 c45 -3 88 -6
96 -6z m257 -55 c244 -75 399 -204 490 -407 10 -24 8 -32 -26 -80 -75 -105
-125 -223 -151 -358 -12 -61 -15 -253 -5 -270 9 -14 -41 -70 -139 -154 -247
-214 -635 -387 -961 -432 -118 -16 -302 -6 -380 21 -62 21 -136 66 -184 112
l-54 52 119 60 c156 79 218 120 222 149 l3 22 -48 -19 c-26 -11 -110 -47 -187
-81 -76 -33 -140 -60 -142 -60 -2 0 -11 24 -19 54 -90 310 184 744 687 1089
54 37 100 67 103 67 2 0 21 11 41 25 20 14 39 24 40 22 2 -2 -3 -39 -11 -82
-55 -285 -71 -483 -42 -512 21 -22 34 -10 42 40 4 23 8 49 10 57 1 8 6 38 9
65 4 28 9 61 11 75 44 276 70 400 87 416 7 7 78 47 158 88 166 88 170 88 327
41z m529 -543 c24 -161 -13 -301 -129 -474 -28 -42 -54 -75 -58 -73 -12 8 -1
200 16 266 20 80 53 173 78 219 38 70 71 118 79 114 4 -2 10 -26 14 -52z"/>
</g>
</svg>
